<mxfile host="app.diagrams.net" agent="Mozilla/5.0 (Macintosh; Intel Mac OS X 10.15; rv:142.0) Gecko/20100101 Firefox/142.0" version="28.1.2" pages="3">
  <diagram name="Page-1" id="SLu7DXVCthIox0x1R9XY">
    <mxGraphModel dx="1426" dy="802" grid="1" gridSize="10" guides="1" tooltips="1" connect="1" arrows="1" fold="1" page="1" pageScale="1" pageWidth="850" pageHeight="1100" math="0" shadow="0">
      <root>
        <mxCell id="0" />
        <mxCell id="1" parent="0" />
        <mxCell id="9U3W19fiR-UsPEiCzLRF-3" value="" style="edgeStyle=orthogonalEdgeStyle;rounded=0;orthogonalLoop=1;jettySize=auto;html=1;" parent="1" edge="1">
          <mxGeometry relative="1" as="geometry">
            <mxPoint x="130" y="110" as="sourcePoint" />
            <mxPoint x="190" y="110" as="targetPoint" />
          </mxGeometry>
        </mxCell>
        <mxCell id="QLk6kvNGUpyDc85TiMKw-9" value="" style="edgeStyle=orthogonalEdgeStyle;rounded=0;orthogonalLoop=1;jettySize=auto;html=1;" parent="1" source="9U3W19fiR-UsPEiCzLRF-8" target="QLk6kvNGUpyDc85TiMKw-7" edge="1">
          <mxGeometry relative="1" as="geometry" />
        </mxCell>
        <mxCell id="9U3W19fiR-UsPEiCzLRF-8" value="Validate profile and transit against Matrix" style="rounded=1;whiteSpace=wrap;html=1;fillColor=#0050ef;fontColor=#ffffff;strokeColor=#001DBC;" parent="1" vertex="1">
          <mxGeometry x="710" y="80" width="120" height="60" as="geometry" />
        </mxCell>
        <mxCell id="QLk6kvNGUpyDc85TiMKw-17" value="" style="edgeStyle=orthogonalEdgeStyle;rounded=0;orthogonalLoop=1;jettySize=auto;html=1;" parent="1" source="9U3W19fiR-UsPEiCzLRF-10" target="QLk6kvNGUpyDc85TiMKw-11" edge="1">
          <mxGeometry relative="1" as="geometry" />
        </mxCell>
        <mxCell id="9U3W19fiR-UsPEiCzLRF-10" value="&lt;div&gt;Validate request does not violate SoD rules&lt;/div&gt;" style="rounded=1;whiteSpace=wrap;html=1;fillColor=#1ba1e2;fontColor=#ffffff;strokeColor=#006EAF;" parent="1" vertex="1">
          <mxGeometry x="710" y="290" width="120" height="60" as="geometry" />
        </mxCell>
        <mxCell id="9U3W19fiR-UsPEiCzLRF-15" value="" style="edgeStyle=orthogonalEdgeStyle;rounded=0;orthogonalLoop=1;jettySize=auto;html=1;" parent="1" source="QLk6kvNGUpyDc85TiMKw-18" target="9U3W19fiR-UsPEiCzLRF-14" edge="1">
          <mxGeometry relative="1" as="geometry" />
        </mxCell>
        <mxCell id="9U3W19fiR-UsPEiCzLRF-12" value="Validate requested profile and privileges correspond to the roles of the requestor" style="rounded=1;whiteSpace=wrap;html=1;" parent="1" vertex="1">
          <mxGeometry x="710" y="540" width="120" height="60" as="geometry" />
        </mxCell>
        <mxCell id="QLk6kvNGUpyDc85TiMKw-23" value="" style="edgeStyle=orthogonalEdgeStyle;rounded=0;orthogonalLoop=1;jettySize=auto;html=1;" parent="1" source="9U3W19fiR-UsPEiCzLRF-14" target="QLk6kvNGUpyDc85TiMKw-20" edge="1">
          <mxGeometry relative="1" as="geometry" />
        </mxCell>
        <mxCell id="9U3W19fiR-UsPEiCzLRF-14" value="Validate app account is linked to an Identity" style="rounded=1;whiteSpace=wrap;html=1;" parent="1" vertex="1">
          <mxGeometry x="370" y="540" width="120" height="60" as="geometry" />
        </mxCell>
        <mxCell id="QLk6kvNGUpyDc85TiMKw-1" value="Custodian receives request" style="ellipse;whiteSpace=wrap;html=1;" parent="1" vertex="1">
          <mxGeometry x="20" y="80" width="120" height="60" as="geometry" />
        </mxCell>
        <mxCell id="QLk6kvNGUpyDc85TiMKw-4" value="" style="edgeStyle=orthogonalEdgeStyle;rounded=0;orthogonalLoop=1;jettySize=auto;html=1;" parent="1" source="QLk6kvNGUpyDc85TiMKw-2" target="QLk6kvNGUpyDc85TiMKw-3" edge="1">
          <mxGeometry relative="1" as="geometry" />
        </mxCell>
        <mxCell id="QLk6kvNGUpyDc85TiMKw-2" value="&lt;div&gt;&quot;Same As&quot;&lt;/div&gt;&lt;div&gt;request?&lt;/div&gt;" style="rhombus;whiteSpace=wrap;html=1;" parent="1" vertex="1">
          <mxGeometry x="190" y="70" width="80" height="80" as="geometry" />
        </mxCell>
        <mxCell id="QLk6kvNGUpyDc85TiMKw-6" value="" style="edgeStyle=orthogonalEdgeStyle;rounded=0;orthogonalLoop=1;jettySize=auto;html=1;" parent="1" source="QLk6kvNGUpyDc85TiMKw-3" target="QLk6kvNGUpyDc85TiMKw-5" edge="1">
          <mxGeometry relative="1" as="geometry" />
        </mxCell>
        <mxCell id="QLk6kvNGUpyDc85TiMKw-3" value="&lt;div&gt;Request contains required info?&lt;/div&gt;&lt;div&gt;(Transit, Role (Murex)/Profils(OSS))&lt;/div&gt;" style="rhombus;whiteSpace=wrap;html=1;" parent="1" vertex="1">
          <mxGeometry x="310" y="50" width="140" height="120" as="geometry" />
        </mxCell>
        <mxCell id="QLk6kvNGUpyDc85TiMKw-8" value="" style="edgeStyle=orthogonalEdgeStyle;rounded=0;orthogonalLoop=1;jettySize=auto;html=1;" parent="1" source="QLk6kvNGUpyDc85TiMKw-5" target="9U3W19fiR-UsPEiCzLRF-8" edge="1">
          <mxGeometry relative="1" as="geometry" />
        </mxCell>
        <mxCell id="QLk6kvNGUpyDc85TiMKw-5" value="&lt;div&gt;User does not already have access or disabled access&lt;/div&gt;" style="rhombus;whiteSpace=wrap;html=1;" parent="1" vertex="1">
          <mxGeometry x="490" y="60" width="170" height="100" as="geometry" />
        </mxCell>
        <mxCell id="QLk6kvNGUpyDc85TiMKw-10" value="" style="edgeStyle=orthogonalEdgeStyle;rounded=0;orthogonalLoop=1;jettySize=auto;html=1;" parent="1" source="QLk6kvNGUpyDc85TiMKw-7" target="9U3W19fiR-UsPEiCzLRF-10" edge="1">
          <mxGeometry relative="1" as="geometry" />
        </mxCell>
        <mxCell id="QLk6kvNGUpyDc85TiMKw-7" value="Access allowed?" style="rhombus;whiteSpace=wrap;html=1;" parent="1" vertex="1">
          <mxGeometry x="705" y="180" width="130" height="80" as="geometry" />
        </mxCell>
        <mxCell id="QLk6kvNGUpyDc85TiMKw-12" value="" style="edgeStyle=orthogonalEdgeStyle;rounded=0;orthogonalLoop=1;jettySize=auto;html=1;" parent="1" source="QLk6kvNGUpyDc85TiMKw-11" target="9U3W19fiR-UsPEiCzLRF-12" edge="1">
          <mxGeometry relative="1" as="geometry" />
        </mxCell>
        <mxCell id="QLk6kvNGUpyDc85TiMKw-11" value="SoD compliant?" style="rhombus;whiteSpace=wrap;html=1;" parent="1" vertex="1">
          <mxGeometry x="730" y="380" width="80" height="80" as="geometry" />
        </mxCell>
        <mxCell id="QLk6kvNGUpyDc85TiMKw-15" value="Actor" style="shape=umlActor;verticalLabelPosition=bottom;verticalAlign=top;html=1;outlineConnect=0;" parent="1" vertex="1">
          <mxGeometry x="65" y="150" width="30" height="60" as="geometry" />
        </mxCell>
        <mxCell id="QLk6kvNGUpyDc85TiMKw-19" value="" style="edgeStyle=orthogonalEdgeStyle;rounded=0;orthogonalLoop=1;jettySize=auto;html=1;" parent="1" source="9U3W19fiR-UsPEiCzLRF-12" target="QLk6kvNGUpyDc85TiMKw-18" edge="1">
          <mxGeometry relative="1" as="geometry">
            <mxPoint x="710" y="570" as="sourcePoint" />
            <mxPoint x="560" y="570" as="targetPoint" />
          </mxGeometry>
        </mxCell>
        <mxCell id="QLk6kvNGUpyDc85TiMKw-18" value="Request corresponds to role of requestor?" style="rhombus;whiteSpace=wrap;html=1;" parent="1" vertex="1">
          <mxGeometry x="540" y="510" width="130" height="120" as="geometry" />
        </mxCell>
        <mxCell id="QLk6kvNGUpyDc85TiMKw-24" value="" style="edgeStyle=orthogonalEdgeStyle;rounded=0;orthogonalLoop=1;jettySize=auto;html=1;" parent="1" source="QLk6kvNGUpyDc85TiMKw-20" edge="1">
          <mxGeometry relative="1" as="geometry">
            <mxPoint x="80" y="460" as="targetPoint" />
          </mxGeometry>
        </mxCell>
        <mxCell id="QLk6kvNGUpyDc85TiMKw-20" value="Linked to Identity?" style="rhombus;whiteSpace=wrap;html=1;" parent="1" vertex="1">
          <mxGeometry x="250" y="530" width="80" height="80" as="geometry" />
        </mxCell>
        <mxCell id="_ej89qJS1zoX2ZwEoIMe-3" value="Log Activity" style="strokeWidth=2;html=1;shape=mxgraph.flowchart.stored_data;whiteSpace=wrap;" vertex="1" parent="1">
          <mxGeometry x="130" y="540" width="100" height="60" as="geometry" />
        </mxCell>
        <mxCell id="_ej89qJS1zoX2ZwEoIMe-4" value="Approve" style="strokeWidth=2;html=1;shape=mxgraph.flowchart.terminator;whiteSpace=wrap;" vertex="1" parent="1">
          <mxGeometry x="30" y="400" width="100" height="60" as="geometry" />
        </mxCell>
      </root>
    </mxGraphModel>
  </diagram>
  <diagram id="JQJtrtzLH4kyBFDLfcLH" name="Page-2">
    <mxGraphModel dx="1426" dy="739" grid="1" gridSize="10" guides="1" tooltips="1" connect="1" arrows="1" fold="1" page="1" pageScale="1" pageWidth="850" pageHeight="1100" math="0" shadow="0">
      <root>
        <mxCell id="0" />
        <mxCell id="1" parent="0" />
        <mxCell id="_BwGVy0RAUE7Yi0t-pad-1" value="Validate profile and transit against Matrix" style="rounded=1;whiteSpace=wrap;html=1;" vertex="1" parent="1">
          <mxGeometry x="50" y="50" width="120" height="60" as="geometry" />
        </mxCell>
      </root>
    </mxGraphModel>
  </diagram>
  <diagram id="uh4f2c5DlTu-AB6Bqlpe" name="Page-3">
    <mxGraphModel dx="1426" dy="802" grid="1" gridSize="10" guides="1" tooltips="1" connect="1" arrows="1" fold="1" page="1" pageScale="1" pageWidth="850" pageHeight="1100" math="0" shadow="0">
      <root>
        <mxCell id="0" />
        <mxCell id="1" parent="0" />
        <mxCell id="0F7NTiPgnS7VSmyrqQKM-1" value="&lt;div&gt;Validate request does not violate SoD rules&lt;/div&gt;" style="rounded=1;whiteSpace=wrap;html=1;" vertex="1" parent="1">
          <mxGeometry x="70" y="70" width="120" height="60" as="geometry" />
        </mxCell>
      </root>
    </mxGraphModel>
  </diagram>
</mxfile>
